<?xml version="1.0" encoding="utf-8"?>
<!-- Svg Vector Icons : http://www.onlinewebfonts.com/icon -->
<!DOCTYPE svg PUBLIC "-//W3C//DTD SVG 1.1//EN" "http://www.w3.org/Graphics/SVG/1.1/DTD/svg11.dtd">
<svg version="1.1" xmlns="http://www.w3.org/2000/svg" xmlns:xlink="http://www.w3.org/1999/xlink" x="0px" y="0px" viewBox="0 0 256 256" enable-background="new 0 0 256 256" xml:space="preserve">
<metadata> Svg Vector Icons : http://www.onlinewebfonts.com/icon </metadata>
<g><g><path fill="#000000" d="M128,173L20.1,70.8C19,69.7,17.6,69,15.9,69c-3.3,0-5.9,2.7-5.9,5.9c0,1.6,0.7,3.1,1.7,4.2l112.1,106.2c1.1,1.1,2.6,1.8,4.2,1.8c1.6,0,3.1-0.7,4.2-1.8L244.3,79.1c1.1-1,1.7-2.5,1.7-4.2c0-3.2-2.6-5.9-5.9-5.9c-1.6,0-3.1,0.7-4.2,1.8L128,173z"/></g></g>
</svg>